Pitbull - International Love ft. Chris Brown 1080p 




-=Video=-


ID                               : 1
Format                           : AVC
Format/Info                      : Advanced Video Codec
Format profile                   : Baseline@L5.1
Format settings, CABAC           : No
Format settings, ReFrames        : 1 frame
Codec ID                         : avc1
Codec ID/Info                    : Advanced Video Coding
Duration                         : 4mn 8s
Bit rate mode                    : Variable
Bit rate                         : 4 286 Kbps
Width                            : 1 920 pixels
Height                           : 1 080 pixels
Display aspect ratio             : 16:9
Frame rate mode                  : Constant
Frame rate                       : 23.976 fps
Color space                      : YUV
Chroma subsampling               : 4:2:0
Bit depth                        : 8 bits
Scan type                        : Progressive
Bits/(Pixel*Frame)               : 0.086
Stream size                      : 127 MiB (98%)



-=Audio=-


ID                               : 2
Format                           : AAC
Format/Info                      : Advanced Audio Codec
Format version                   : Version 4
Format profile                   : LC
Format settings, SBR             : No
Codec ID                         : 40
Duration                         : 4mn 8s
Bit rate mode                    : Variable
Bit rate                         : 63.9 Kbps
Channel(s)                       : 2 channels
Channel positions                : Front: L R
Sampling rate                    : 44.1 KHz
Stream size                      : 1.89 MiB (1%)



-=Screens=-
 
http://www.shotpix.com/images/86116866863767991949.png
 
http://www.shotpix.com/images/37543529367875259735.png
 
http://www.shotpix.com/images/79374815381872496161.png



-=Thump Screen=-
 
http://www.shotpix.com/images/34426556308702864599.jpeg